<svg viewBox="575 280.3434 380 231.8132" width="5000" height="3050.173684210526" xmlns="http://www.w3.org/2000/svg" xmlns:xlink="http://www.w3.org/1999/xlink" preserveAspectRatio="none"><defs></defs><style>.a6izo4zJpcolor {fill:#FFFFFF;fill-opacity:1;}.a6izo4zJpstrokeColor-str {stroke:#D9D9D9;stroke-opacity:1;}.aD6z1nYkhcolor {fill:#FFFFFF;fill-opacity:1;}.aD6z1nYkhstrokeColor-str {stroke:#D9D9D9;stroke-opacity:1;}</style><g opacity="0.2" transform="rotate(0 590.5366 280.3434)">
<svg width="348.927" height="231.8132" x="590.5366" y="280.3434" version="1.1" preserveAspectRatio="none" viewBox="4.200999736785889 21.96699905395508 89.02999114990234 59.14799880981445">
  <g transform="matrix(1 0 0 1 0 0)" style="fill:#FFFFFF;fill-opacity:1;"><g><circle cx="46.796" cy="22.734" r="0.767"></circle><circle cx="46.796" cy="26.58" r="0.886"></circle><circle cx="46.796" cy="30.425" r="1.004"></circle><circle cx="46.797" cy="34.271" r="1.12"></circle><circle cx="46.796" cy="38.079" r="1.24"></circle><circle cx="46.797" cy="41.963" r="1.356"></circle><circle cx="46.797" cy="45.809" r="1.476"></circle><circle cx="43.004" cy="22.734" r="0.767"></circle><circle cx="43.004" cy="26.58" r="0.886"></circle><circle cx="43.004" cy="30.425" r="1.004"></circle><circle cx="43.004" cy="34.271" r="1.12"></circle><circle cx="43.004" cy="38.079" r="1.24"></circle><circle cx="43.004" cy="41.963" r="1.356"></circle><circle cx="43.004" cy="80.348" r="0.767"></circle><circle cx="43.004" cy="76.57" r="0.886"></circle><circle cx="43.004" cy="72.723" r="1.003"></circle><circle cx="43.004" cy="68.876" r="1.121"></circle><circle cx="43.004" cy="65.031" r="1.239"></circle><circle cx="43.004" cy="61.186" r="1.356"></circle><circle cx="46.796" cy="80.348" r="0.767"></circle><circle cx="46.796" cy="76.57" r="0.886"></circle><circle cx="46.796" cy="72.723" r="1.003"></circle><circle cx="46.797" cy="68.876" r="1.121"></circle><circle cx="46.796" cy="65.031" r="1.239"></circle><circle cx="46.797" cy="61.186" r="1.356"></circle><circle cx="43.004" cy="45.809" r="1.476"></circle><circle cx="46.797" cy="49.447" r="1.476"></circle><circle cx="43.004" cy="49.447" r="1.476"></circle><circle cx="46.797" cy="53.083" r="1.475"></circle><circle cx="43.004" cy="53.083" r="1.475"></circle><circle cx="46.797" cy="57.024" r="1.475"></circle><circle cx="50.594" cy="22.734" r="0.767"></circle><circle cx="50.591" cy="26.58" r="0.886"></circle><circle cx="50.586" cy="30.425" r="1.004"></circle><circle cx="50.582" cy="34.271" r="1.12"></circle><circle cx="50.578" cy="38.079" r="1.24"></circle><circle cx="50.573" cy="41.963" r="1.356"></circle><circle cx="50.57" cy="45.809" r="1.476"></circle><circle cx="50.594" cy="80.348" r="0.767"></circle><circle cx="50.591" cy="76.57" r="0.886"></circle><circle cx="50.586" cy="72.723" r="1.003"></circle><circle cx="50.582" cy="68.876" r="1.121"></circle><circle cx="50.578" cy="65.031" r="1.239"></circle><circle cx="50.573" cy="61.186" r="1.356"></circle><circle cx="50.57" cy="49.447" r="1.476"></circle><circle cx="50.57" cy="53.083" r="1.475"></circle><circle cx="50.57" cy="57.024" r="1.475"></circle><circle cx="54.53" cy="76.57" r="0.886"></circle><circle cx="54.525" cy="72.723" r="1.003"></circle><circle cx="54.522" cy="68.876" r="1.121"></circle><circle cx="54.52" cy="65.031" r="1.239"></circle><circle cx="58.309" cy="49.571" r="1.24"></circle><circle cx="62.145" cy="49.571" r="1.144"></circle><circle cx="65.983" cy="49.571" r="1.049"></circle><circle cx="69.821" cy="49.571" r="0.954"></circle><circle cx="73.659" cy="49.571" r="0.859"></circle><circle cx="77.497" cy="49.571" r="0.763"></circle><circle cx="81.334" cy="49.571" r="0.668"></circle><circle cx="85.172" cy="49.571" r="0.573"></circle><circle cx="89.01" cy="49.571" r="0.479"></circle><circle cx="92.848" cy="49.571" r="0.383"></circle><path d="M35.535,52.165c0.684,0,1.239,0.553,1.239,1.238s-0.556,1.24-1.239,1.24s-1.238-0.555-1.238-1.24   C34.297,52.722,34.852,52.165,35.535,52.165z"></path><circle cx="31.698" cy="53.403" r="1.144"></circle><circle cx="27.713" cy="53.403" r="0.764"></circle><circle cx="23.876" cy="53.403" r="0.668"></circle><circle cx="20.038" cy="53.403" r="0.573"></circle><circle cx="16.2" cy="53.403" r="0.479"></circle><circle cx="12.363" cy="53.403" r="0.383"></circle><circle cx="58.356" cy="57.149" r="1.144"></circle><circle cx="62.194" cy="57.149" r="1.049"></circle><circle cx="66.032" cy="57.149" r="0.953"></circle><circle cx="69.87" cy="57.149" r="0.858"></circle><circle cx="73.707" cy="57.149" r="0.763"></circle><circle cx="77.545" cy="57.149" r="0.669"></circle><circle cx="81.383" cy="57.149" r="0.572"></circle><circle cx="85.221" cy="57.149" r="0.479"></circle><circle cx="89.058" cy="57.149" r="0.383"></circle><circle cx="58.356" cy="60.788" r="1.144"></circle><circle cx="62.194" cy="60.788" r="1.049"></circle><circle cx="66.032" cy="60.788" r="0.953"></circle><path d="M70.729,60.788c0,0.473-0.384,0.857-0.859,0.857c-0.474,0-0.857-0.385-0.857-0.857c0-0.477,0.384-0.859,0.857-0.859   C70.345,59.929,70.729,60.312,70.729,60.788z"></path><circle cx="73.707" cy="60.788" r="0.763"></circle><circle cx="77.545" cy="60.788" r="0.669"></circle><circle cx="81.383" cy="60.788" r="0.572"></circle><circle cx="85.221" cy="60.788" r="0.479"></circle><circle cx="89.058" cy="60.788" r="0.383"></circle><circle cx="58.449" cy="65.032" r="0.668"></circle><circle cx="62.286" cy="65.032" r="0.573"></circle><circle cx="66.124" cy="65.032" r="0.477"></circle><circle cx="69.963" cy="65.031" r="0.384"></circle><circle cx="58.449" cy="68.972" r="0.668"></circle><circle cx="62.286" cy="68.972" r="0.573"></circle><circle cx="66.124" cy="68.972" r="0.477"></circle><circle cx="69.963" cy="68.973" r="0.382"></circle><circle cx="58.449" cy="72.761" r="0.668"></circle><circle cx="62.286" cy="72.761" r="0.573"></circle><circle cx="66.124" cy="72.761" r="0.477"></circle><circle cx="69.963" cy="72.762" r="0.382"></circle><path d="M59.117,76.548c0,0.369-0.3,0.67-0.669,0.67s-0.668-0.301-0.668-0.67c0-0.367,0.299-0.666,0.668-0.666   S59.117,76.181,59.117,76.548z"></path><path d="M62.858,76.548c0,0.318-0.255,0.576-0.572,0.576c-0.316,0-0.573-0.258-0.573-0.576c0-0.314,0.257-0.57,0.573-0.57   C62.604,75.978,62.858,76.233,62.858,76.548z"></path><path d="M66.601,76.548c0,0.264-0.212,0.48-0.478,0.48c-0.263,0-0.477-0.217-0.477-0.48c0-0.262,0.214-0.477,0.477-0.477   C66.389,76.071,66.601,76.286,66.601,76.548z"></path><circle cx="39.236" cy="80.348" r="0.767"></circle><circle cx="35.301" cy="80.349" r="0.573"></circle><circle cx="31.464" cy="80.349" r="0.478"></circle><circle cx="27.627" cy="80.349" r="0.383"></circle><circle cx="58.309" cy="53.209" r="1.239"></circle><circle cx="62.145" cy="53.21" r="1.144"></circle><circle cx="65.983" cy="53.21" r="1.049"></circle><circle cx="69.821" cy="53.21" r="0.954"></circle><circle cx="73.659" cy="53.21" r="0.859"></circle><circle cx="77.497" cy="53.21" r="0.763"></circle><circle cx="81.334" cy="53.21" r="0.668"></circle><circle cx="85.172" cy="53.21" r="0.573"></circle><circle cx="89.01" cy="53.21" r="0.479"></circle><circle cx="54.514" cy="61.186" r="1.356"></circle><circle cx="54.511" cy="49.447" r="1.476"></circle><circle cx="58.309" cy="45.783" r="1.239"></circle><circle cx="62.145" cy="45.782" r="1.144"></circle><circle cx="65.983" cy="45.782" r="1.049"></circle><circle cx="69.821" cy="45.782" r="0.954"></circle><circle cx="73.659" cy="45.782" r="0.859"></circle><circle cx="77.497" cy="45.782" r="0.763"></circle><path d="M82.002,45.782c0,0.369-0.299,0.67-0.667,0.67c-0.369,0-0.669-0.301-0.669-0.67c0-0.367,0.3-0.668,0.669-0.668   C81.703,45.114,82.002,45.415,82.002,45.782z"></path><circle cx="85.172" cy="45.782" r="0.573"></circle><circle cx="89.01" cy="45.782" r="0.479"></circle><circle cx="92.848" cy="45.782" r="0.383"></circle><circle cx="35.441" cy="45.632" r="0.954"></circle><circle cx="31.604" cy="45.632" r="0.858"></circle><circle cx="27.766" cy="45.632" r="0.764"></circle><circle cx="23.928" cy="45.632" r="0.668"></circle><circle cx="20.09" cy="45.632" r="0.573"></circle><circle cx="16.252" cy="45.632" r="0.478"></circle><circle cx="12.414" cy="45.631" r="0.382"></circle><circle cx="35.368" cy="30.323" r="0.574"></circle><circle cx="31.529" cy="30.323" r="0.479"></circle><circle cx="27.692" cy="30.323" r="0.383"></circle><circle cx="35.368" cy="34.265" r="0.689"></circle><circle cx="31.529" cy="34.265" r="0.479"></circle><circle cx="27.692" cy="34.265" r="0.383"></circle><circle cx="35.463" cy="26.687" r="0.478"></circle><path d="M54.52,43.233c-0.686,0-1.24-0.555-1.24-1.24c0-0.682,0.555-1.238,1.24-1.238c0.683,0,1.237,0.557,1.237,1.238   C55.757,42.679,55.202,43.233,54.52,43.233z"></path><circle cx="58.356" cy="41.993" r="1.144"></circle><circle cx="62.194" cy="41.993" r="1.049"></circle><circle cx="54.52" cy="38.079" r="1.24"></circle><circle cx="58.356" cy="38.079" r="1.144"></circle><circle cx="62.194" cy="38.079" r="1.049"></circle><circle cx="66.032" cy="41.993" r="0.953"></circle><path d="M70.729,41.993c0,0.473-0.384,0.861-0.859,0.861c-0.474,0-0.857-0.389-0.857-0.861s0.384-0.859,0.857-0.859   C70.345,41.134,70.729,41.521,70.729,41.993z"></path><circle cx="54.464" cy="34.265" r="1.049"></circle><circle cx="58.302" cy="34.265" r="0.954"></circle><circle cx="62.14" cy="34.265" r="0.859"></circle><circle cx="73.707" cy="41.993" r="0.763"></circle><circle cx="77.545" cy="41.993" r="0.669"></circle><circle cx="66.027" cy="38.079" r="0.667"></circle><circle cx="81.383" cy="41.993" r="0.572"></circle><circle cx="69.864" cy="38.079" r="0.573"></circle><circle cx="85.221" cy="41.993" r="0.479"></circle><circle cx="89.058" cy="41.995" r="0.383"></circle><circle cx="73.6" cy="38.079" r="0.383"></circle><circle cx="35.251" cy="38.079" r="1.144"></circle><circle cx="31.413" cy="38.079" r="1.049"></circle><circle cx="27.58" cy="38.079" r="0.668"></circle><circle cx="23.743" cy="38.079" r="0.573"></circle><circle cx="20.008" cy="38.079" r="0.383"></circle><circle cx="35.251" cy="42.019" r="1.144"></circle><circle cx="31.413" cy="42.019" r="1.049"></circle><circle cx="27.58" cy="42.019" r="0.668"></circle><circle cx="23.743" cy="42.019" r="0.573"></circle><circle cx="20.008" cy="42.021" r="0.383"></circle><circle cx="54.616" cy="30.349" r="1.048"></circle><path d="M59.117,30.349c0,0.369-0.3,0.67-0.669,0.67s-0.668-0.301-0.668-0.67c0-0.367,0.299-0.668,0.668-0.668   S59.117,29.981,59.117,30.349z"></path><circle cx="62.286" cy="30.349" r="0.573"></circle><circle cx="66.021" cy="30.35" r="0.384"></circle><circle cx="54.405" cy="26.712" r="0.573"></circle><circle cx="58.141" cy="26.712" r="0.383"></circle><circle cx="54.511" cy="45.658" r="1.476"></circle><circle cx="54.511" cy="53.083" r="1.475"></circle><circle cx="54.511" cy="57.024" r="1.475"></circle><circle cx="43.004" cy="57.024" r="1.475"></circle><circle cx="39.237" cy="26.58" r="0.886"></circle><circle cx="39.237" cy="30.425" r="1.004"></circle><circle cx="35.368" cy="76.399" r="0.574"></circle><circle cx="31.529" cy="76.399" r="0.479"></circle><circle cx="27.692" cy="76.397" r="0.383"></circle><circle cx="39.237" cy="76.5" r="1.003"></circle><circle cx="39.237" cy="34.271" r="1.12"></circle><circle cx="39.237" cy="38.079" r="1.24"></circle><path d="M34.107,72.329c0-0.629,0.512-1.143,1.143-1.143c0.633,0,1.146,0.514,1.146,1.143c0,0.635-0.513,1.146-1.146,1.146   C34.619,73.476,34.107,72.964,34.107,72.329z"></path><path d="M30.364,72.329c0-0.576,0.47-1.047,1.049-1.047c0.58,0,1.049,0.471,1.049,1.047c0,0.584-0.469,1.053-1.049,1.053   C30.834,73.382,30.364,72.913,30.364,72.329z"></path><path d="M26.912,72.329c0-0.365,0.301-0.666,0.669-0.666c0.369,0,0.667,0.301,0.667,0.666c0,0.371-0.298,0.67-0.667,0.67   C27.213,72.999,26.912,72.7,26.912,72.329z"></path><path d="M23.17,72.329c0-0.314,0.257-0.57,0.573-0.57s0.572,0.256,0.572,0.57c0,0.318-0.256,0.574-0.572,0.574   S23.17,72.647,23.17,72.329z"></path><path d="M20.008,71.948c0.212,0,0.384,0.17,0.384,0.381c0,0.215-0.172,0.385-0.384,0.385c-0.21,0-0.383-0.17-0.383-0.385   C19.625,72.118,19.798,71.948,20.008,71.948z"></path><path d="M39.237,71.093c-0.687,0-1.24,0.553-1.24,1.236c0,0.688,0.554,1.24,1.24,1.24c0.684,0,1.238-0.553,1.238-1.24   C40.476,71.646,39.921,71.093,39.237,71.093z"></path><circle cx="39.237" cy="41.963" r="1.356"></circle><circle cx="35.251" cy="49.446" r="1.144"></circle><circle cx="31.413" cy="49.446" r="1.049"></circle><circle cx="27.58" cy="49.446" r="0.668"></circle><circle cx="23.743" cy="49.446" r="0.573"></circle><circle cx="20.008" cy="49.446" r="0.383"></circle><path d="M39.237,48.032c-0.751,0-1.357,0.609-1.357,1.359c0,0.746,0.606,1.355,1.357,1.355c0.748,0,1.356-0.609,1.356-1.355   C40.594,48.642,39.985,48.032,39.237,48.032z"></path><circle cx="39.237" cy="45.809" r="1.476"></circle><circle cx="39.237" cy="53.404" r="1.474"></circle><circle cx="35.535" cy="57.193" r="1.239"></circle><circle cx="31.698" cy="57.192" r="1.144"></circle><circle cx="27.713" cy="57.192" r="0.764"></circle><circle cx="23.876" cy="57.192" r="0.668"></circle><circle cx="20.038" cy="57.192" r="0.573"></circle><circle cx="16.2" cy="57.192" r="0.479"></circle><circle cx="12.363" cy="57.193" r="0.382"></circle><circle cx="8.422" cy="57.191" r="0.317"></circle><circle cx="4.481" cy="57.193" r="0.28"></circle><circle cx="39.237" cy="57.192" r="1.475"></circle><circle cx="35.535" cy="60.981" r="1.238"></circle><circle cx="31.698" cy="60.981" r="1.144"></circle><path d="M26.949,60.981c0-0.422,0.343-0.762,0.766-0.762c0.42,0,0.762,0.34,0.762,0.762c0,0.424-0.342,0.764-0.762,0.764   C27.292,61.745,26.949,61.405,26.949,60.981z"></path><path d="M23.208,60.983c0-0.369,0.299-0.67,0.668-0.67s0.669,0.299,0.669,0.67c-0.001,0.367-0.3,0.666-0.669,0.666   S23.208,61.351,23.208,60.983z"></path><circle cx="20.038" cy="60.983" r="0.573"></circle><circle cx="16.2" cy="60.981" r="0.479"></circle><circle cx="12.363" cy="60.982" r="0.382"></circle><circle cx="8.422" cy="60.982" r="0.317"></circle><circle cx="4.481" cy="60.982" r="0.28"></circle><circle cx="73.796" cy="65.074" r="0.28"></circle><circle cx="73.796" cy="68.862" r="0.279"></circle><circle cx="39.236" cy="64.923" r="1.238"></circle><circle cx="35.487" cy="64.923" r="1.144"></circle><circle cx="31.503" cy="64.923" r="0.764"></circle><circle cx="27.665" cy="64.923" r="0.669"></circle><circle cx="23.828" cy="64.923" r="0.574"></circle><circle cx="19.989" cy="64.923" r="0.478"></circle><circle cx="16.151" cy="64.923" r="0.383"></circle><circle cx="12.212" cy="64.923" r="0.316"></circle><circle cx="8.271" cy="64.923" r="0.279"></circle><circle cx="39.236" cy="68.711" r="1.239"></circle><circle cx="35.487" cy="68.712" r="1.144"></circle><circle cx="31.503" cy="68.712" r="0.764"></circle><circle cx="27.665" cy="68.712" r="0.669"></circle><circle cx="23.828" cy="68.712" r="0.574"></circle><circle cx="19.989" cy="68.712" r="0.478"></circle><circle cx="16.151" cy="68.712" r="0.383"></circle><circle cx="12.212" cy="68.713" r="0.317"></circle><circle cx="39.237" cy="60.982" r="1.476"></circle></g></g>
</svg>
</g><g opacity="1" transform="rotate(0 586.6009 456.3107)">
<svg width="356.7982" height="25.8155" x="586.6009" y="456.3107" version="1.1" preserveAspectRatio="none" viewBox="1.56 -28.32 505.23999999999995 36.56">
  <g transform="matrix(1 0 0 1 0 0)" class="a6izo4zJpcolor"><path id="id-6izo4zJp22" d="M15.04-2.60L15.04-2.60Q17.88-2.60 20.02-4.04Q22.16-5.48 23.20-7.92L23.20-7.92L26.36-7.92Q25.04-4.16 22-2L22-2Q18.76 0.32 14.36 0.32L14.36 0.32Q8.56 0.32 4.96-3.64L4.96-3.64Q1.56-7.44 1.56-13.24Q1.56-19.04 4.96-22.84L4.96-22.84Q8.56-26.80 14.36-26.80L14.36-26.80Q18.76-26.80 22-24.48L22-24.48Q25.04-22.32 26.36-18.56L26.36-18.56L23.20-18.56Q22.16-21 20.02-22.44Q17.88-23.88 15.04-23.88Q12.20-23.88 10.32-23.06Q8.44-22.24 7.16-20.80L7.16-20.80Q4.56-17.88 4.56-13.24L4.56-13.24Q4.56-8.60 7.16-5.68L7.16-5.68Q9.88-2.60 15.04-2.60Z M42.88-20.32L42.88-20.32Q47.36-20.32 50.16-17.32L50.16-17.32Q52.80-14.44 52.80-10L52.80-10Q52.80-5.56 50.16-2.68L50.16-2.68Q47.36 0.32 42.88 0.32L42.88 0.32Q38.40 0.32 35.60-2.68L35.60-2.68Q32.96-5.56 32.96-10L32.96-10Q32.96-14.44 35.60-17.32L35.60-17.32Q38.40-20.32 42.88-20.32ZM42.88-2.40L42.88-2.40Q46.12-2.40 48-4.64L48-4.64Q49.80-6.76 49.80-10L49.80-10Q49.80-13.24 48-15.36L48-15.36Q46.12-17.60 42.88-17.60L42.88-17.60Q39.64-17.60 37.76-15.36L37.76-15.36Q35.96-13.24 35.96-10L35.96-10Q35.96-6.76 37.76-4.64L37.76-4.64Q39.64-2.40 42.88-2.40Z M60.76-20L63.76-20L63.76-16.88Q64.84-18.32 66.40-19.32Q67.96-20.32 69.96-20.32Q71.96-20.32 73.40-19.76Q74.84-19.20 75.92-18.08L75.92-18.08Q78.40-15.64 78.40-11.64L78.40-11.64L78.40 0L75.40 0L75.40-11.56Q75.40-14.32 73.84-15.96Q72.28-17.60 69.80-17.60L69.80-17.60Q67.28-17.60 65.52-15.92L65.52-15.92Q63.76-14.20 63.76-11.52L63.76-11.52L63.76 0L60.76 0L60.76-20Z M87.40-20L90.40-20L90.40-16.88Q91.48-18.32 93.04-19.32Q94.60-20.32 96.60-20.32Q98.60-20.32 100.04-19.76Q101.48-19.20 102.56-18.08L102.56-18.08Q105.04-15.64 105.04-11.64L105.04-11.64L105.04 0L102.04 0L102.04-11.56Q102.04-14.32 100.48-15.96Q98.92-17.60 96.44-17.60L96.44-17.60Q93.92-17.60 92.16-15.92L92.16-15.92Q90.40-14.20 90.40-11.52L90.40-11.52L90.40 0L87.40 0L87.40-20Z M122.96-2.40L122.96-2.40Q127-2.40 128.76-5.76L128.76-5.76L132.04-5.76Q131-3.04 128.74-1.36Q126.48 0.32 122.92 0.32L122.92 0.32Q118.40 0.32 115.56-2.68L115.56-2.68Q112.80-5.60 112.80-10L112.80-10Q112.80-14.44 115.44-17.32L115.44-17.32Q118.24-20.32 122.72-20.32L122.72-20.32Q127.20-20.32 130-17.32L130-17.32Q132.64-14.44 132.64-10L132.64-10L132.64-8.80L115.88-8.80Q116.20-6.04 118.08-4.24L118.08-4.24Q120-2.40 122.96-2.40ZM122.72-17.60L122.72-17.60Q119.96-17.60 118.08-15.88L118.08-15.88Q116.32-14.24 115.92-11.60L115.92-11.60L129.52-11.60Q129.12-14.24 127.36-15.88L127.36-15.88Q125.48-17.60 122.72-17.60Z M149.56-2.40L149.56-2.40Q151.48-2.40 152.96-3.48Q154.44-4.56 155.12-6.28L155.12-6.28L158.36-6.28Q157.44-3.32 155-1.52L155-1.52Q152.44 0.32 148.92 0.32L148.92 0.32Q144.52 0.32 141.76-2.68L141.76-2.68Q139.08-5.60 139.08-10L139.08-10Q139.08-14.40 141.76-17.32L141.76-17.32Q144.52-20.32 148.92-20.32L148.92-20.32Q152.44-20.32 155-18.48L155-18.48Q157.44-16.68 158.36-13.72L158.36-13.72L155.12-13.72Q154.44-15.44 152.96-16.52Q151.48-17.60 149.56-17.60Q147.64-17.60 146.30-17Q144.96-16.40 144.04-15.36L144.04-15.36Q142.08-13.20 142.08-10L142.08-10Q142.08-6.80 144.04-4.64L144.04-4.64Q146.04-2.40 149.56-2.40Z M171.24 0L168.24 0L168.24-17.36L164.16-17.36L164.16-20L168.24-20L168.24-27.16L171.24-27.16L171.24-20L175.84-20L175.84-17.36L171.24-17.36L171.24 0Z M183.12 0L183.12-20L186.12-20L186.12 0L183.12 0ZM183.00-27.28L186.24-27.28L186.24-23.36L183.00-23.36L183.00-27.28Z M195.32-20L198.32-20L198.32-16.88Q199.40-18.32 200.96-19.32Q202.52-20.32 204.52-20.32Q206.52-20.32 207.96-19.76Q209.40-19.20 210.48-18.08L210.48-18.08Q212.96-15.64 212.96-11.64L212.96-11.64L212.96 0L209.96 0L209.96-11.56Q209.96-14.32 208.40-15.96Q206.84-17.60 204.36-17.60L204.36-17.60Q201.84-17.60 200.08-15.92L200.08-15.92Q198.32-14.20 198.32-11.52L198.32-11.52L198.32 0L195.32 0L195.32-20Z M237.56-16.80L237.56-16.80L237.56-20L240.56-20L240.56-0.60Q240.56 3.72 238.10 5.98Q235.64 8.24 231.48 8.24Q227.32 8.24 224.98 6.64Q222.64 5.04 221.80 2.40L221.80 2.40L225.12 2.40Q226.40 5.52 230.96 5.52L230.96 5.52Q234.44 5.52 236.00 3.92Q237.56 2.32 237.56-0.80L237.56-0.80L237.56-3.56Q235.12 0 230.40 0L230.40 0Q226.08 0 223.36-2.96L223.36-2.96Q220.72-5.84 220.72-10.16L220.72-10.16Q220.72-14.48 223.36-17.36L223.36-17.36Q226.08-20.32 230.62-20.32Q235.16-20.32 237.56-16.80ZM230.80-2.72L230.80-2.72Q232.44-2.72 233.72-3.30Q235.00-3.88 235.92-4.88L235.92-4.88Q237.72-6.96 237.72-10.16L237.72-10.16Q237.72-13.36 235.92-15.44L235.92-15.44Q233.96-17.60 230.80-17.60L230.80-17.60Q227.56-17.60 225.60-15.44L225.60-15.44Q223.72-13.32 223.72-10.16L223.72-10.16Q223.72-7 225.60-4.88L225.60-4.88Q227.56-2.72 230.80-2.72Z M271.28-25.48L270.88-25.48Q268.76-25.48 267.70-24.54Q266.64-23.60 266.64-21.52L266.64-21.52L266.64-20L271.28-20L271.28-17.36L266.64-17.36L266.64 0L263.64 0L263.64-17.36L260.20-17.36L260.20-20L263.64-20L263.64-21.76Q263.64-25.04 265.60-26.68Q267.56-28.32 271.04-28.32L271.04-28.32L271.28-28.32L271.28-25.48Z M286.84-20.32L286.84-20.32Q291.32-20.32 294.12-17.32L294.12-17.32Q296.76-14.44 296.76-10L296.76-10Q296.76-5.56 294.12-2.68L294.12-2.68Q291.32 0.32 286.84 0.32L286.84 0.32Q282.36 0.32 279.56-2.68L279.56-2.68Q276.92-5.56 276.92-10L276.92-10Q276.92-14.44 279.56-17.32L279.56-17.32Q282.36-20.32 286.84-20.32ZM286.84-2.40L286.84-2.40Q290.08-2.40 291.96-4.64L291.96-4.64Q293.76-6.76 293.76-10L293.76-10Q293.76-13.24 291.96-15.36L291.96-15.36Q290.08-17.60 286.84-17.60L286.84-17.60Q283.60-17.60 281.72-15.36L281.72-15.36Q279.92-13.24 279.92-10L279.92-10Q279.92-6.76 281.72-4.64L281.72-4.64Q283.60-2.40 286.84-2.40Z M315.08-20.32L315.28-20.32L315.28-17.32L314.92-17.32Q311.68-17.32 309.64-14.72L309.64-14.72Q307.72-12.24 307.72-8.80L307.72-8.80L307.72 0L304.72 0L304.72-20L307.72-20L307.72-15.08Q308.68-18.20 311.88-19.68L311.88-19.68Q313.20-20.32 315.08-20.32L315.08-20.32Z M338.72-22.42Q337.96-21.76 337.70-20.96Q337.44-20.16 337.44-19.26Q337.44-18.36 338.22-17.60Q339.00-16.84 340.28-16.32Q341.56-15.80 343.20-15.40Q344.84-15 346.54-14.58Q348.24-14.16 349.88-13.62Q351.52-13.08 352.80-12.24L352.80-12.24Q355.64-10.44 355.64-7.32L355.64-7.32Q355.64-3.60 352.86-1.64Q350.08 0.32 345.16 0.32L345.16 0.32Q339.60 0.32 336.68-2L336.68-2Q334.08-4.08 333.72-7.92L333.72-7.92L336.84-7.92Q337.00-5.20 339.48-3.76L339.48-3.76Q341.64-2.52 345.20-2.52L345.20-2.52Q352.64-2.52 352.64-7.20L352.64-7.20Q352.64-8.80 351.30-9.72Q349.96-10.64 347.94-11.24Q345.92-11.84 343.58-12.36Q341.24-12.88 339.22-13.70Q337.20-14.52 335.86-15.86Q334.52-17.20 334.52-19.48L334.52-19.48Q334.52-22.72 337.00-24.76Q339.48-26.80 344.48-26.80L344.48-26.80Q349.52-26.80 352.28-24.48L352.28-24.48Q354.80-22.44 354.96-19.24L354.96-19.24L351.88-19.24Q351.48-22.52 347.64-23.60L347.64-23.60Q346.28-24 344.26-24Q342.24-24 340.86-23.54Q339.48-23.08 338.72-22.42Z M381.08 0L378.08 0L378.08-3.12Q377.00-1.68 375.44-0.68Q373.88 0.32 371.88 0.32Q369.88 0.32 368.44-0.24Q367.00-0.80 365.92-1.92L365.92-1.92Q363.44-4.36 363.44-8.36L363.44-8.36L363.44-20L366.44-20L366.44-8.44Q366.44-5.68 368.00-4.04Q369.56-2.40 372.04-2.40L372.04-2.40Q374.56-2.40 376.32-4.08L376.32-4.08Q378.08-5.80 378.08-8.48L378.08-8.48L378.08-20L381.08-20L381.08 0Z M399.52-2.40L399.52-2.40Q401.44-2.40 402.92-3.48Q404.40-4.56 405.08-6.28L405.08-6.28L408.32-6.28Q407.40-3.32 404.96-1.52L404.96-1.52Q402.40 0.32 398.88 0.32L398.88 0.32Q394.48 0.32 391.72-2.68L391.72-2.68Q389.04-5.60 389.04-10L389.04-10Q389.04-14.40 391.72-17.32L391.72-17.32Q394.48-20.32 398.88-20.32L398.88-20.32Q402.40-20.32 404.96-18.48L404.96-18.48Q407.40-16.68 408.32-13.72L408.32-13.72L405.08-13.72Q404.40-15.44 402.92-16.52Q401.44-17.60 399.52-17.60Q397.60-17.60 396.26-17Q394.92-16.40 394.00-15.36L394.00-15.36Q392.04-13.20 392.04-10L392.04-10Q392.04-6.80 394.00-4.64L394.00-4.64Q396.00-2.40 399.52-2.40Z M425.28-2.40L425.28-2.40Q427.20-2.40 428.68-3.48Q430.16-4.56 430.84-6.28L430.84-6.28L434.08-6.28Q433.16-3.32 430.72-1.52L430.72-1.52Q428.16 0.32 424.64 0.32L424.64 0.32Q420.24 0.32 417.48-2.68L417.48-2.68Q414.80-5.60 414.80-10L414.80-10Q414.80-14.40 417.48-17.32L417.48-17.32Q420.24-20.32 424.64-20.32L424.64-20.32Q428.16-20.32 430.72-18.48L430.72-18.48Q433.16-16.68 434.08-13.72L434.08-13.72L430.84-13.72Q430.16-15.44 428.68-16.52Q427.20-17.60 425.28-17.60Q423.36-17.60 422.02-17Q420.68-16.40 419.76-15.36L419.76-15.36Q417.80-13.20 417.80-10L417.80-10Q417.80-6.80 419.76-4.64L419.76-4.64Q421.76-2.40 425.28-2.40Z M450.72-2.40L450.72-2.40Q454.76-2.40 456.52-5.76L456.52-5.76L459.80-5.76Q458.76-3.04 456.50-1.36Q454.24 0.32 450.68 0.32L450.68 0.32Q446.16 0.32 443.32-2.68L443.32-2.68Q440.56-5.60 440.56-10L440.56-10Q440.56-14.44 443.20-17.32L443.20-17.32Q446.00-20.32 450.48-20.32L450.48-20.32Q454.96-20.32 457.76-17.32L457.76-17.32Q460.40-14.44 460.40-10L460.40-10L460.40-8.80L443.64-8.80Q443.96-6.04 445.84-4.24L445.84-4.24Q447.76-2.40 450.72-2.40ZM450.48-17.60L450.48-17.60Q447.72-17.60 445.84-15.88L445.84-15.88Q444.08-14.24 443.68-11.60L443.68-11.60L457.28-11.60Q456.88-14.24 455.12-15.88L455.12-15.88Q453.24-17.60 450.48-17.60Z M482.88-14.64L479.84-14.64Q479.44-17.76 474.82-17.76Q470.20-17.76 470.20-14.88L470.20-14.88Q470.20-13.68 471.18-13.06Q472.16-12.44 473.64-12.04Q475.12-11.64 476.86-11.30Q478.60-10.96 480.08-10.34Q481.56-9.72 482.54-8.64Q483.52-7.56 483.52-5.68L483.52-5.68Q483.52-2.76 481.32-1.22Q479.12 0.32 475.36 0.32L475.36 0.32Q471.36 0.32 469.00-1.68L469.00-1.68Q466.84-3.44 466.68-6.28L466.68-6.28L469.80-6.28Q470.08-3.52 472.92-2.56L472.92-2.56Q473.96-2.24 474.98-2.24Q476.00-2.24 476.88-2.36Q477.76-2.48 478.60-2.80L478.60-2.80Q480.52-3.56 480.52-5.40L480.52-5.40Q480.52-6.64 479.54-7.30Q478.56-7.96 477.08-8.38Q475.60-8.80 473.86-9.14Q472.12-9.48 470.64-10.08Q469.16-10.68 468.18-11.72Q467.20-12.76 467.20-14.60L467.20-14.60Q467.20-17.32 469.18-18.82Q471.16-20.32 475.04-20.32L475.04-20.32Q478.72-20.32 480.84-18.56L480.84-18.56Q482.60-17.08 482.88-14.64L482.88-14.64Z M506.16-14.64L503.12-14.64Q502.72-17.76 498.10-17.76Q493.48-17.76 493.48-14.88L493.48-14.88Q493.48-13.68 494.46-13.06Q495.44-12.44 496.92-12.04Q498.40-11.64 500.14-11.30Q501.88-10.96 503.36-10.34Q504.84-9.72 505.82-8.64Q506.80-7.56 506.80-5.68L506.80-5.68Q506.80-2.76 504.60-1.22Q502.40 0.32 498.64 0.32L498.64 0.32Q494.64 0.32 492.28-1.68L492.28-1.68Q490.12-3.44 489.96-6.28L489.96-6.28L493.08-6.28Q493.36-3.52 496.20-2.56L496.20-2.56Q497.24-2.24 498.26-2.24Q499.28-2.24 500.16-2.36Q501.04-2.48 501.88-2.80L501.88-2.80Q503.80-3.56 503.80-5.40L503.80-5.40Q503.80-6.64 502.82-7.30Q501.84-7.96 500.36-8.38Q498.88-8.80 497.14-9.14Q495.40-9.48 493.92-10.08Q492.44-10.68 491.46-11.72Q490.48-12.76 490.48-14.60L490.48-14.60Q490.48-17.32 492.46-18.82Q494.44-20.32 498.32-20.32L498.32-20.32Q502.00-20.32 504.12-18.56L504.12-18.56Q505.88-17.08 506.16-14.64L506.16-14.64Z"/></g>
</svg>
</g><g opacity="1" transform="rotate(0 575 359.3706)">
<svg width="380" height="73.7587" x="575" y="359.3706" version="1.1" preserveAspectRatio="none" viewBox="3.32 -28.48 149.20000000000002 28.96">
  <g transform="matrix(1 0 0 1 0 0)" class="aD6z1nYkhcolor"><path id="id-D6z1nYkh5" d="M34.88 0L28.80 0L28.76-16.80L20.52-2.96L17.60-2.96L9.40-16.44L9.40 0L3.32 0L3.32-28L8.68-28L19.16-10.60L29.48-28L34.80-28L34.88 0Z M47.96-5.20L63.20-5.20L63.20 0L41.52 0L41.52-28L62.68-28L62.68-22.80L47.96-22.80L47.96-16.72L60.96-16.72L60.96-11.68L47.96-11.68L47.96-5.20Z M92.40-28L81.52-9.92L81.52 0L75.04 0L75.04-10L64.20-28L71.08-28L78.56-15.56L86.04-28L92.40-28Z M114.12-28L120.52-28L120.52 0L115.20 0L101.24-17L101.24 0L94.84 0L94.84-28L100.20-28L114.12-11L114.12-28Z M146.08-6.24L146.08-14.44L152-14.44L152-3.08Q149.72-1.36 146.72-0.44Q143.72 0.48 140.68 0.48L140.68 0.48Q136.32 0.48 132.84-1.38Q129.36-3.24 127.38-6.54Q125.40-9.84 125.40-14L125.40-14Q125.40-18.16 127.38-21.46Q129.36-24.76 132.88-26.62Q136.40-28.48 140.80-28.48L140.80-28.48Q144.48-28.48 147.48-27.24Q150.48-26 152.52-23.64L152.52-23.64L148.36-19.80Q145.36-22.96 141.12-22.96L141.12-22.96Q138.44-22.96 136.36-21.84Q134.28-20.72 133.12-18.68Q131.96-16.64 131.96-14L131.96-14Q131.96-11.40 133.12-9.36Q134.28-7.32 136.34-6.18Q138.40-5.04 141.04-5.04L141.04-5.04Q143.84-5.04 146.08-6.24L146.08-6.24Z"/></g>
</svg>
</g></svg>